<svg width="611" height="111" viewBox="0 0 611 111" fill="none" xmlns="http://www.w3.org/2000/svg">
<path d="M40.993 2.206L22.174 109H0.601L19.573 2.206H40.993ZM134.678 109H113.105L77.762 35.713L64.757 109H43.184L62.156 2.05299H83.576L119.072 75.493L132.077 2.05299H153.497L134.678 109ZM196.238 110.071C185.528 110.071 176.705 107.674 169.769 102.88C162.935 97.984 159.518 91.15 159.518 82.378C159.518 81.46 159.62 80.083 159.824 78.247H181.703C181.295 82.531 182.417 86.05 185.069 88.804C187.823 91.558 191.801 92.935 197.003 92.935C202.205 92.935 206.285 91.864 209.243 89.722C212.303 87.478 213.833 84.316 213.833 80.236C213.833 76.462 212.252 73.453 209.09 71.209C206.03 68.965 201.185 66.466 194.555 63.712C188.435 61.162 183.437 58.816 179.561 56.674C175.787 54.532 172.523 51.574 169.769 47.8C167.117 43.924 165.791 39.079 165.791 33.265C165.791 26.635 167.474 20.872 170.84 15.976C174.308 11.08 179 7.306 184.916 4.65399C190.934 2.002 197.768 0.675999 205.418 0.675999C212.966 0.675999 219.494 1.951 225.002 4.501C230.612 6.94899 234.794 10.468 237.548 15.058C240.404 19.648 241.628 25.003 241.22 31.123H218.423L218.576 29.44C218.576 26.074 217.301 23.32 214.751 21.178C212.303 19.036 208.835 17.965 204.347 17.965C199.553 17.965 195.677 19.087 192.719 21.331C189.761 23.575 188.282 26.635 188.282 30.511C188.282 33.061 189.098 35.305 190.73 37.243C192.464 39.079 194.555 40.711 197.003 42.139C199.451 43.465 202.97 45.199 207.56 47.341C213.578 49.993 218.525 52.492 222.401 54.838C226.277 57.184 229.592 60.295 232.346 64.171C235.1 68.047 236.477 72.79 236.477 78.4C236.477 84.52 234.794 89.977 231.428 94.771C228.164 99.565 223.472 103.339 217.352 106.093C211.334 108.745 204.296 110.071 196.238 110.071ZM289.469 2.206L270.65 109H249.077L268.049 2.206H289.469ZM296.097 55.45C297.933 44.944 301.962 35.56 308.184 27.298C314.406 18.934 322.056 12.457 331.134 7.867C340.212 3.175 349.851 0.828997 360.051 0.828997C372.087 0.828997 381.981 3.787 389.733 9.70299C397.587 15.517 402.33 23.728 403.962 34.336H379.329C377.697 29.848 374.943 26.431 371.067 24.085C367.191 21.739 362.397 20.566 356.685 20.566C350.361 20.566 344.496 21.994 339.09 24.85C333.684 27.706 329.145 31.786 325.473 37.09C321.801 42.394 319.353 48.514 318.129 55.45C317.619 57.898 317.364 60.703 317.364 63.865C317.364 72.229 319.812 78.808 324.708 83.602C329.706 88.294 336.54 90.64 345.21 90.64C353.268 90.64 360.306 88.447 366.324 84.061C372.444 79.675 376.983 73.606 379.941 65.854H343.221L345.975 49.636H403.809L400.443 68.302C397.689 75.748 393.405 82.633 387.591 88.957C381.777 95.281 374.841 100.381 366.783 104.257C358.725 108.031 350.106 109.918 340.926 109.918C331.848 109.918 323.841 108.082 316.905 104.41C310.071 100.738 304.716 95.638 300.84 89.11C297.066 82.48 295.179 74.83 295.179 66.16C295.179 62.692 295.485 59.122 296.097 55.45ZM516.658 2.206L497.839 109H476.266L484.375 63.253H438.781L430.672 109H409.099L428.071 2.206H449.491L441.688 46.423H487.435L495.238 2.206H516.658ZM610.416 2.206L607.356 19.036H579.051L563.139 109H541.566L557.478 19.036H529.02L532.08 2.206H610.416Z" fill="black"/>
</svg>
